<mxfile host="app.diagrams.net" agent="Mozilla/5.0 (Macintosh; Intel Mac OS X 10_15_7) AppleWebKit/537.36 (KHTML, like Gecko) Chrome/128.0.0.0 Safari/537.36" version="24.8.4">
  <diagram name="Page-1" id="8YRi8dTUrMT8eqwdldPJ">
    <mxGraphModel dx="1086" dy="877" grid="1" gridSize="10" guides="1" tooltips="1" connect="1" arrows="1" fold="1" page="1" pageScale="1" pageWidth="827" pageHeight="1169" math="0" shadow="0">
      <root>
        <mxCell id="0" />
        <mxCell id="1" parent="0" />
        <mxCell id="P5GfA2-9DteR8ejn-4df-156" style="edgeStyle=orthogonalEdgeStyle;rounded=0;orthogonalLoop=1;jettySize=auto;html=1;exitX=1;exitY=0.5;exitDx=0;exitDy=0;entryX=0;entryY=0.25;entryDx=0;entryDy=0;" edge="1" parent="1" target="P5GfA2-9DteR8ejn-4df-175">
          <mxGeometry relative="1" as="geometry">
            <mxPoint x="577" y="1082" as="sourcePoint" />
          </mxGeometry>
        </mxCell>
        <mxCell id="P5GfA2-9DteR8ejn-4df-157" style="edgeStyle=orthogonalEdgeStyle;rounded=0;orthogonalLoop=1;jettySize=auto;html=1;exitX=0;exitY=0.5;exitDx=0;exitDy=0;entryX=1;entryY=0.5;entryDx=0;entryDy=0;" edge="1" parent="1" target="P5GfA2-9DteR8ejn-4df-166">
          <mxGeometry relative="1" as="geometry">
            <mxPoint x="502.99999999999955" y="1084" as="sourcePoint" />
            <mxPoint x="479" y="1086" as="targetPoint" />
          </mxGeometry>
        </mxCell>
        <mxCell id="P5GfA2-9DteR8ejn-4df-160" style="edgeStyle=orthogonalEdgeStyle;rounded=0;orthogonalLoop=1;jettySize=auto;html=1;exitX=0.25;exitY=0;exitDx=0;exitDy=0;entryX=0.75;entryY=1;entryDx=0;entryDy=0;" edge="1" parent="1" source="P5GfA2-9DteR8ejn-4df-163">
          <mxGeometry relative="1" as="geometry">
            <mxPoint x="250" y="981" as="targetPoint" />
          </mxGeometry>
        </mxCell>
        <mxCell id="P5GfA2-9DteR8ejn-4df-161" style="edgeStyle=orthogonalEdgeStyle;rounded=0;orthogonalLoop=1;jettySize=auto;html=1;exitX=0.75;exitY=0;exitDx=0;exitDy=0;entryX=0.25;entryY=1;entryDx=0;entryDy=0;" edge="1" parent="1" source="P5GfA2-9DteR8ejn-4df-163">
          <mxGeometry relative="1" as="geometry">
            <mxPoint x="350" y="981" as="targetPoint" />
          </mxGeometry>
        </mxCell>
        <mxCell id="P5GfA2-9DteR8ejn-4df-162" style="edgeStyle=orthogonalEdgeStyle;rounded=0;orthogonalLoop=1;jettySize=auto;html=1;exitX=0.25;exitY=0;exitDx=0;exitDy=0;entryX=0.5;entryY=1;entryDx=0;entryDy=0;" edge="1" parent="1" source="P5GfA2-9DteR8ejn-4df-166" target="P5GfA2-9DteR8ejn-4df-163">
          <mxGeometry relative="1" as="geometry" />
        </mxCell>
        <mxCell id="P5GfA2-9DteR8ejn-4df-163" value="Managers" style="rounded=0;whiteSpace=wrap;html=1;fillColor=#0071C9;strokeColor=default;fontStyle=1;fontSize=13;fontColor=#FFFFFF;" vertex="1" parent="1">
          <mxGeometry x="240" y="1002" width="120" height="20" as="geometry" />
        </mxCell>
        <mxCell id="P5GfA2-9DteR8ejn-4df-165" style="edgeStyle=orthogonalEdgeStyle;rounded=0;orthogonalLoop=1;jettySize=auto;html=1;exitX=0.25;exitY=1;exitDx=0;exitDy=0;entryX=0.5;entryY=0;entryDx=0;entryDy=0;" edge="1" parent="1" source="P5GfA2-9DteR8ejn-4df-166" target="P5GfA2-9DteR8ejn-4df-167">
          <mxGeometry relative="1" as="geometry" />
        </mxCell>
        <mxCell id="P5GfA2-9DteR8ejn-4df-166" value="Internal" style="rounded=0;whiteSpace=wrap;html=1;fillColor=#051D40;fontColor=#ffffff;strokeColor=#005700;fontStyle=1;fontSize=13;" vertex="1" parent="1">
          <mxGeometry x="390" y="1074" width="80" height="20" as="geometry" />
        </mxCell>
        <mxCell id="P5GfA2-9DteR8ejn-4df-167" value="Employees" style="rounded=0;whiteSpace=wrap;html=1;fillColor=#0071C9;strokeColor=default;fontStyle=1;fontSize=13;fontColor=#FFFFFF;" vertex="1" parent="1">
          <mxGeometry x="240" y="1188" width="120" height="20" as="geometry" />
        </mxCell>
        <mxCell id="P5GfA2-9DteR8ejn-4df-169" style="edgeStyle=orthogonalEdgeStyle;rounded=0;orthogonalLoop=1;jettySize=auto;html=1;exitX=0.25;exitY=0;exitDx=0;exitDy=0;entryX=0.908;entryY=1.028;entryDx=0;entryDy=0;entryPerimeter=0;" edge="1" parent="1" source="P5GfA2-9DteR8ejn-4df-167">
          <mxGeometry relative="1" as="geometry">
            <mxPoint x="258.96000000000004" y="1163.24" as="targetPoint" />
          </mxGeometry>
        </mxCell>
        <mxCell id="P5GfA2-9DteR8ejn-4df-245" style="edgeStyle=orthogonalEdgeStyle;rounded=0;orthogonalLoop=1;jettySize=auto;html=1;exitX=1;exitY=0.5;exitDx=0;exitDy=0;entryX=0.5;entryY=1;entryDx=0;entryDy=0;" edge="1" parent="1" source="P5GfA2-9DteR8ejn-4df-175" target="P5GfA2-9DteR8ejn-4df-180">
          <mxGeometry relative="1" as="geometry" />
        </mxCell>
        <mxCell id="P5GfA2-9DteR8ejn-4df-275" style="edgeStyle=orthogonalEdgeStyle;rounded=0;orthogonalLoop=1;jettySize=auto;html=1;exitX=1;exitY=1;exitDx=0;exitDy=0;entryX=0;entryY=0.5;entryDx=0;entryDy=0;" edge="1" parent="1" source="P5GfA2-9DteR8ejn-4df-175" target="P5GfA2-9DteR8ejn-4df-261">
          <mxGeometry relative="1" as="geometry" />
        </mxCell>
        <mxCell id="P5GfA2-9DteR8ejn-4df-277" style="edgeStyle=orthogonalEdgeStyle;rounded=0;orthogonalLoop=1;jettySize=auto;html=1;exitX=0.25;exitY=1;exitDx=0;exitDy=0;entryX=0.75;entryY=0;entryDx=0;entryDy=0;" edge="1" parent="1" source="P5GfA2-9DteR8ejn-4df-175" target="P5GfA2-9DteR8ejn-4df-187">
          <mxGeometry relative="1" as="geometry" />
        </mxCell>
        <mxCell id="P5GfA2-9DteR8ejn-4df-284" style="edgeStyle=orthogonalEdgeStyle;rounded=0;orthogonalLoop=1;jettySize=auto;html=1;exitX=0.5;exitY=1;exitDx=0;exitDy=0;entryX=0;entryY=0.75;entryDx=0;entryDy=0;" edge="1" parent="1" source="P5GfA2-9DteR8ejn-4df-175" target="P5GfA2-9DteR8ejn-4df-193">
          <mxGeometry relative="1" as="geometry" />
        </mxCell>
        <mxCell id="P5GfA2-9DteR8ejn-4df-175" value="&lt;b&gt;External&lt;/b&gt;" style="rounded=0;whiteSpace=wrap;html=1;fillColor=#051D40;fontColor=#ffffff;strokeColor=#001DBC;fontSize=13;" vertex="1" parent="1">
          <mxGeometry x="600" y="1076" width="80" height="20" as="geometry" />
        </mxCell>
        <mxCell id="P5GfA2-9DteR8ejn-4df-246" style="edgeStyle=orthogonalEdgeStyle;rounded=0;orthogonalLoop=1;jettySize=auto;html=1;exitX=0.5;exitY=1;exitDx=0;exitDy=0;entryX=0.5;entryY=0;entryDx=0;entryDy=0;" edge="1" parent="1">
          <mxGeometry relative="1" as="geometry">
            <mxPoint x="620" y="980" as="sourcePoint" />
            <mxPoint x="631.9999999999998" y="1076" as="targetPoint" />
            <Array as="points">
              <mxPoint x="632" y="981" />
            </Array>
          </mxGeometry>
        </mxCell>
        <mxCell id="P5GfA2-9DteR8ejn-4df-176" value="Customers" style="rounded=0;whiteSpace=wrap;html=1;fillColor=#0071C9;strokeColor=#36393d;fontStyle=1;fontSize=13;fontColor=#FFFFFF;" vertex="1" parent="1">
          <mxGeometry x="568" y="960" width="120" height="20" as="geometry" />
        </mxCell>
        <mxCell id="P5GfA2-9DteR8ejn-4df-177" style="edgeStyle=orthogonalEdgeStyle;rounded=0;orthogonalLoop=1;jettySize=auto;html=1;exitX=0.75;exitY=1;exitDx=0;exitDy=0;entryX=0.147;entryY=0.057;entryDx=0;entryDy=0;entryPerimeter=0;" edge="1" parent="1" source="P5GfA2-9DteR8ejn-4df-167" target="P5GfA2-9DteR8ejn-4df-223">
          <mxGeometry relative="1" as="geometry" />
        </mxCell>
        <mxCell id="P5GfA2-9DteR8ejn-4df-244" style="edgeStyle=orthogonalEdgeStyle;rounded=0;orthogonalLoop=1;jettySize=auto;html=1;exitX=0.75;exitY=1;exitDx=0;exitDy=0;entryX=0;entryY=0.75;entryDx=0;entryDy=0;" edge="1" parent="1" source="P5GfA2-9DteR8ejn-4df-180" target="P5GfA2-9DteR8ejn-4df-184">
          <mxGeometry relative="1" as="geometry" />
        </mxCell>
        <mxCell id="P5GfA2-9DteR8ejn-4df-264" style="edgeStyle=orthogonalEdgeStyle;rounded=0;orthogonalLoop=1;jettySize=auto;html=1;exitX=0.75;exitY=0;exitDx=0;exitDy=0;entryX=0;entryY=0.5;entryDx=0;entryDy=0;" edge="1" parent="1" source="P5GfA2-9DteR8ejn-4df-180" target="P5GfA2-9DteR8ejn-4df-212">
          <mxGeometry relative="1" as="geometry" />
        </mxCell>
        <mxCell id="P5GfA2-9DteR8ejn-4df-274" style="edgeStyle=orthogonalEdgeStyle;rounded=0;orthogonalLoop=1;jettySize=auto;html=1;exitX=1;exitY=0.25;exitDx=0;exitDy=0;entryX=0;entryY=0.5;entryDx=0;entryDy=0;" edge="1" parent="1" source="P5GfA2-9DteR8ejn-4df-180" target="P5GfA2-9DteR8ejn-4df-214">
          <mxGeometry relative="1" as="geometry" />
        </mxCell>
        <mxCell id="P5GfA2-9DteR8ejn-4df-180" value="Partners" style="rounded=0;whiteSpace=wrap;html=1;fillColor=#0071C9;strokeColor=#36393d;fontStyle=1;fontSize=13;fontColor=#FFFFFF;" vertex="1" parent="1">
          <mxGeometry x="662" y="1022" width="120" height="19" as="geometry" />
        </mxCell>
        <mxCell id="P5GfA2-9DteR8ejn-4df-184" value="&lt;div style=&quot;&quot;&gt;Payment Services&lt;/div&gt;" style="rounded=0;whiteSpace=wrap;html=1;align=center;fillColor=#56aeff;fontColor=#ffffff;strokeColor=#006EAF;fontStyle=1" vertex="1" parent="1">
          <mxGeometry x="773" y="1063" width="120" height="30" as="geometry" />
        </mxCell>
        <mxCell id="P5GfA2-9DteR8ejn-4df-280" style="edgeStyle=orthogonalEdgeStyle;rounded=0;orthogonalLoop=1;jettySize=auto;html=1;exitX=0;exitY=0.25;exitDx=0;exitDy=0;entryX=0.25;entryY=0;entryDx=0;entryDy=0;" edge="1" parent="1" source="P5GfA2-9DteR8ejn-4df-187" target="P5GfA2-9DteR8ejn-4df-218">
          <mxGeometry relative="1" as="geometry" />
        </mxCell>
        <mxCell id="P5GfA2-9DteR8ejn-4df-281" style="edgeStyle=orthogonalEdgeStyle;rounded=0;orthogonalLoop=1;jettySize=auto;html=1;exitX=0.5;exitY=1;exitDx=0;exitDy=0;entryX=0.5;entryY=0;entryDx=0;entryDy=0;" edge="1" parent="1" source="P5GfA2-9DteR8ejn-4df-187" target="P5GfA2-9DteR8ejn-4df-196">
          <mxGeometry relative="1" as="geometry" />
        </mxCell>
        <mxCell id="P5GfA2-9DteR8ejn-4df-287" style="edgeStyle=orthogonalEdgeStyle;rounded=0;orthogonalLoop=1;jettySize=auto;html=1;exitX=1;exitY=0.5;exitDx=0;exitDy=0;entryX=0.75;entryY=0;entryDx=0;entryDy=0;" edge="1" parent="1" source="P5GfA2-9DteR8ejn-4df-187" target="P5GfA2-9DteR8ejn-4df-217">
          <mxGeometry relative="1" as="geometry" />
        </mxCell>
        <mxCell id="P5GfA2-9DteR8ejn-4df-187" value="Regulators" style="rounded=0;whiteSpace=wrap;html=1;fillColor=#0071C9;strokeColor=#36393d;fontStyle=1;fontSize=13;fontColor=#FFFFFF;" vertex="1" parent="1">
          <mxGeometry x="475.5" y="1150.67" width="120" height="20" as="geometry" />
        </mxCell>
        <mxCell id="P5GfA2-9DteR8ejn-4df-189" value="&lt;div style=&quot;&quot;&gt;Food &amp;amp; Beverage Suppliers&lt;/div&gt;" style="rounded=0;whiteSpace=wrap;html=1;align=center;fillColor=#1ba1e2;fontColor=#ffffff;strokeColor=#006EAF;fontStyle=1" vertex="1" parent="1">
          <mxGeometry x="930" y="1108" width="120" height="30" as="geometry" />
        </mxCell>
        <mxCell id="P5GfA2-9DteR8ejn-4df-289" style="edgeStyle=orthogonalEdgeStyle;rounded=0;orthogonalLoop=1;jettySize=auto;html=1;exitX=0.5;exitY=1;exitDx=0;exitDy=0;entryX=0.25;entryY=0;entryDx=0;entryDy=0;" edge="1" parent="1" source="P5GfA2-9DteR8ejn-4df-193" target="P5GfA2-9DteR8ejn-4df-216">
          <mxGeometry relative="1" as="geometry" />
        </mxCell>
        <mxCell id="P5GfA2-9DteR8ejn-4df-290" style="edgeStyle=orthogonalEdgeStyle;rounded=0;orthogonalLoop=1;jettySize=auto;html=1;exitX=1;exitY=0.75;exitDx=0;exitDy=0;entryX=0;entryY=0.75;entryDx=0;entryDy=0;" edge="1" parent="1" source="P5GfA2-9DteR8ejn-4df-193" target="P5GfA2-9DteR8ejn-4df-195">
          <mxGeometry relative="1" as="geometry" />
        </mxCell>
        <mxCell id="P5GfA2-9DteR8ejn-4df-193" value="Competitors" style="rounded=0;whiteSpace=wrap;html=1;fillColor=#0071C9;strokeColor=#36393d;fontStyle=1;fontSize=13;fontColor=#FFFFFF;" vertex="1" parent="1">
          <mxGeometry x="660" y="1196.16" width="120" height="20" as="geometry" />
        </mxCell>
        <mxCell id="P5GfA2-9DteR8ejn-4df-195" value="&lt;div style=&quot;&quot;&gt;Other Hotels/Accomadtions&lt;/div&gt;" style="rounded=0;whiteSpace=wrap;html=1;align=center;fillColor=#56aeff;fontColor=#ffffff;strokeColor=#006EAF;fontStyle=1" vertex="1" parent="1">
          <mxGeometry x="820" y="1216.16" width="120" height="28" as="geometry" />
        </mxCell>
        <mxCell id="P5GfA2-9DteR8ejn-4df-196" value="&lt;div style=&quot;&quot;&gt;Government&lt;/div&gt;" style="rounded=0;whiteSpace=wrap;html=1;align=center;fillColor=#56aeff;fontColor=#ffffff;strokeColor=#006EAF;fontStyle=1" vertex="1" parent="1">
          <mxGeometry x="475.5" y="1230" width="120" height="30" as="geometry" />
        </mxCell>
        <mxCell id="P5GfA2-9DteR8ejn-4df-212" value="&lt;div style=&quot;&quot;&gt;Local Tour Guides&lt;/div&gt;" style="rounded=0;whiteSpace=wrap;html=1;align=center;fillColor=#56aeff;fontColor=#ffffff;strokeColor=#006EAF;fontStyle=1" vertex="1" parent="1">
          <mxGeometry x="773" y="969" width="120" height="30" as="geometry" />
        </mxCell>
        <mxCell id="P5GfA2-9DteR8ejn-4df-214" value="&lt;div style=&quot;&quot;&gt;Local Restaurants&lt;/div&gt;" style="rounded=0;whiteSpace=wrap;html=1;align=center;fillColor=#56aeff;fontColor=#ffffff;strokeColor=#006EAF;fontStyle=1" vertex="1" parent="1">
          <mxGeometry x="830" y="1013" width="120" height="30" as="geometry" />
        </mxCell>
        <mxCell id="P5GfA2-9DteR8ejn-4df-216" value="&lt;div style=&quot;&quot;&gt;Other Travel Agencies &amp;amp; Airlines&lt;/div&gt;" style="rounded=0;whiteSpace=wrap;html=1;align=center;fillColor=#56aeff;fontColor=#ffffff;strokeColor=#006EAF;fontStyle=1" vertex="1" parent="1">
          <mxGeometry x="680" y="1254" width="120" height="30" as="geometry" />
        </mxCell>
        <mxCell id="P5GfA2-9DteR8ejn-4df-217" value="&lt;div style=&quot;&quot;&gt;Health &amp;amp; Safety Officiers&lt;/div&gt;" style="rounded=0;whiteSpace=wrap;html=1;align=center;fillColor=#56aeff;fontColor=#ffffff;strokeColor=#006EAF;fontStyle=1" vertex="1" parent="1">
          <mxGeometry x="525" y="1273.67" width="120" height="36.333333333333336" as="geometry" />
        </mxCell>
        <mxCell id="P5GfA2-9DteR8ejn-4df-218" value="&lt;div style=&quot;&quot;&gt;Immigration &amp;amp; Customs&lt;/div&gt;" style="rounded=0;whiteSpace=wrap;html=1;align=center;fillColor=#1ba1e2;fontColor=#ffffff;strokeColor=#006EAF;fontStyle=1" vertex="1" parent="1">
          <mxGeometry x="410" y="1179.8300000000002" width="120" height="36.333333333333336" as="geometry" />
        </mxCell>
        <mxCell id="P5GfA2-9DteR8ejn-4df-219" style="edgeStyle=orthogonalEdgeStyle;rounded=0;orthogonalLoop=1;jettySize=auto;html=1;exitX=0.5;exitY=1;exitDx=0;exitDy=0;" edge="1" parent="1" source="P5GfA2-9DteR8ejn-4df-218" target="P5GfA2-9DteR8ejn-4df-218">
          <mxGeometry relative="1" as="geometry" />
        </mxCell>
        <mxCell id="P5GfA2-9DteR8ejn-4df-221" value="&lt;div style=&quot;&quot;&gt;Souvenir Vendors&lt;/div&gt;" style="rounded=0;whiteSpace=wrap;html=1;align=center;fillColor=#1ba1e2;fontColor=#ffffff;strokeColor=#006EAF;fontStyle=1" vertex="1" parent="1">
          <mxGeometry x="932" y="1170.67" width="120" height="36.333333333333336" as="geometry" />
        </mxCell>
        <mxCell id="P5GfA2-9DteR8ejn-4df-223" value="&lt;div style=&quot;&quot;&gt;Hotel Stafff&lt;/div&gt;" style="rounded=0;whiteSpace=wrap;html=1;align=center;fillColor=#56aeff;fontColor=#ffffff;strokeColor=#2D7600;fontStyle=1" vertex="1" parent="1">
          <mxGeometry x="320" y="1242" width="120" height="30" as="geometry" />
        </mxCell>
        <mxCell id="P5GfA2-9DteR8ejn-4df-230" style="edgeStyle=orthogonalEdgeStyle;rounded=0;orthogonalLoop=1;jettySize=auto;html=1;exitX=0.5;exitY=1;exitDx=0;exitDy=0;" edge="1" parent="1" source="P5GfA2-9DteR8ejn-4df-212" target="P5GfA2-9DteR8ejn-4df-212">
          <mxGeometry relative="1" as="geometry" />
        </mxCell>
        <mxCell id="P5GfA2-9DteR8ejn-4df-231" value="&lt;div style=&quot;&quot;&gt;Primary Traveller&lt;/div&gt;" style="rounded=0;whiteSpace=wrap;html=1;align=center;fillColor=#56aeff;fontColor=#ffffff;strokeColor=#006EAF;fontStyle=1" vertex="1" parent="1">
          <mxGeometry x="489.5" y="910" width="120" height="30" as="geometry" />
        </mxCell>
        <mxCell id="P5GfA2-9DteR8ejn-4df-232" value="&lt;div style=&quot;&quot;&gt;Travel Companions&lt;/div&gt;" style="rounded=0;whiteSpace=wrap;html=1;align=center;fillColor=#56aeff;fontColor=#ffffff;strokeColor=#006EAF;fontStyle=1" vertex="1" parent="1">
          <mxGeometry x="645.5" y="910" width="120" height="30" as="geometry" />
        </mxCell>
        <mxCell id="P5GfA2-9DteR8ejn-4df-236" style="edgeStyle=orthogonalEdgeStyle;rounded=0;orthogonalLoop=1;jettySize=auto;html=1;exitX=0.25;exitY=0;exitDx=0;exitDy=0;entryX=0.88;entryY=1.005;entryDx=0;entryDy=0;entryPerimeter=0;" edge="1" parent="1" source="P5GfA2-9DteR8ejn-4df-176" target="P5GfA2-9DteR8ejn-4df-231">
          <mxGeometry relative="1" as="geometry" />
        </mxCell>
        <mxCell id="P5GfA2-9DteR8ejn-4df-237" style="edgeStyle=orthogonalEdgeStyle;rounded=0;orthogonalLoop=1;jettySize=auto;html=1;exitX=0.75;exitY=0;exitDx=0;exitDy=0;entryX=0.107;entryY=1;entryDx=0;entryDy=0;entryPerimeter=0;" edge="1" parent="1" source="P5GfA2-9DteR8ejn-4df-176" target="P5GfA2-9DteR8ejn-4df-232">
          <mxGeometry relative="1" as="geometry" />
        </mxCell>
        <mxCell id="P5GfA2-9DteR8ejn-4df-262" style="edgeStyle=orthogonalEdgeStyle;rounded=0;orthogonalLoop=1;jettySize=auto;html=1;exitX=0.75;exitY=0;exitDx=0;exitDy=0;entryX=0;entryY=0.5;entryDx=0;entryDy=0;" edge="1" parent="1" source="P5GfA2-9DteR8ejn-4df-261" target="P5GfA2-9DteR8ejn-4df-189">
          <mxGeometry relative="1" as="geometry" />
        </mxCell>
        <mxCell id="P5GfA2-9DteR8ejn-4df-263" style="edgeStyle=orthogonalEdgeStyle;rounded=0;orthogonalLoop=1;jettySize=auto;html=1;exitX=0.75;exitY=1;exitDx=0;exitDy=0;entryX=0;entryY=0.5;entryDx=0;entryDy=0;" edge="1" parent="1" source="P5GfA2-9DteR8ejn-4df-261" target="P5GfA2-9DteR8ejn-4df-221">
          <mxGeometry relative="1" as="geometry" />
        </mxCell>
        <mxCell id="P5GfA2-9DteR8ejn-4df-261" value="Suppliers" style="rounded=0;whiteSpace=wrap;html=1;fillColor=#0071C9;strokeColor=#36393d;fontStyle=1;fontSize=13;fontColor=#FFFFFF;" vertex="1" parent="1">
          <mxGeometry x="782" y="1149" width="120" height="20" as="geometry" />
        </mxCell>
        <mxCell id="P5GfA2-9DteR8ejn-4df-203" value="&lt;span style=&quot;text-align: left;&quot;&gt;Travel Agency Managers&lt;/span&gt;" style="rounded=0;whiteSpace=wrap;html=1;fillColor=#56aeff;fontColor=#ffffff;strokeColor=#2D7600;fontStyle=1" vertex="1" parent="1">
          <mxGeometry x="157" y="947.66" width="120" height="30" as="geometry" />
        </mxCell>
        <mxCell id="P5GfA2-9DteR8ejn-4df-204" value="Hotel Managers" style="rounded=0;whiteSpace=wrap;html=1;fillColor=#56aeff;fontColor=#ffffff;strokeColor=#2D7600;fontStyle=1" vertex="1" parent="1">
          <mxGeometry x="317" y="947.66" width="120" height="30" as="geometry" />
        </mxCell>
        <mxCell id="P5GfA2-9DteR8ejn-4df-205" value="&lt;div style=&quot;text-align: left;&quot;&gt;Transportation Staff&lt;/div&gt;" style="rounded=0;whiteSpace=wrap;html=1;fillColor=#56aeff;fontColor=#ffffff;strokeColor=#2D7600;fontStyle=1" vertex="1" parent="1">
          <mxGeometry x="170" y="1133" width="120" height="30" as="geometry" />
        </mxCell>
        <mxCell id="P5GfA2-9DteR8ejn-4df-293" style="edgeStyle=orthogonalEdgeStyle;rounded=0;orthogonalLoop=1;jettySize=auto;html=1;exitX=0.25;exitY=1;exitDx=0;exitDy=0;entryX=0.838;entryY=0.024;entryDx=0;entryDy=0;entryPerimeter=0;" edge="1" parent="1" source="P5GfA2-9DteR8ejn-4df-167">
          <mxGeometry relative="1" as="geometry">
            <mxPoint x="257.55999999999995" y="1242.3799999999997" as="targetPoint" />
          </mxGeometry>
        </mxCell>
        <mxCell id="P5GfA2-9DteR8ejn-4df-295" value="&lt;div style=&quot;&quot;&gt;Travel Agents &amp;amp; Customer Service&lt;/div&gt;" style="rounded=0;whiteSpace=wrap;html=1;align=center;fillColor=#56AEFF;fontColor=#FFFFFF;strokeColor=#2D7600;fontStyle=1" vertex="1" parent="1">
          <mxGeometry x="172" y="1243.1599999999999" width="120" height="30" as="geometry" />
        </mxCell>
      </root>
    </mxGraphModel>
  </diagram>
</mxfile>
